<svg width="30" height="30" viewBox="0 0 30 30" fill="none" xmlns="http://www.w3.org/2000/svg">
<g clip-path="url(#clip0_222_3)">
<rect width="30" height="30" rx="2" fill="#2A2A2A"/>
<path d="M0.5 0.5H29.5V29.5H0.5V0.5Z" stroke="black"/>
<path d="M24 19.5C22.05 19.5 20.4 20.7 19.8 22.5H13.5C13.5 21.45 13.2 20.55 12.75 19.8L23.4 8.85C23.85 8.85 24.3 9 24.75 9C26.85 9 28.5 7.35 28.5 5.25C28.5 3.15 26.85 1.5 24.75 1.5C22.65 1.5 21 3.15 21 5.25C21 5.7 21.15 6.3 21.3 6.75L10.8 17.55C9.9 16.8 8.7 16.5 7.5 16.5V10.2C9.3 9.6 10.5 7.95 10.5 6C10.5 3.45 8.55 1.5 6 1.5C3.45 1.5 1.5 3.45 1.5 6C1.5 7.95 2.7 9.6 4.5 10.2V17.25C2.7 18.3 1.5 20.25 1.5 22.35C1.5 25.65 4.2 28.35 7.5 28.35C9.75 28.35 11.7 27.15 12.6 25.35H19.65C20.25 27 21.9 28.35 23.85 28.35C26.25 28.35 28.35 26.4 28.35 23.85C28.5 21.45 26.4 19.5 24 19.5Z" fill="white"/>
</g>
<defs>
<clipPath id="clip0_222_3">
<rect width="30" height="30" rx="2" fill="white"/>
</clipPath>
</defs>
</svg>
